<svg width="91" height="90" viewBox="0 0 91 90" fill="none" xmlns="http://www.w3.org/2000/svg">
<path d="M71.4635 39.4039L67.9326 27.3991C67.7914 26.8342 67.9326 26.128 68.4976 25.8456L78.3838 18.9252C70.4748 9.18016 58.4701 2.82471 45.053 2.82471C34.0369 2.82471 24.1507 7.06167 16.6653 13.8408L18.9251 14.1233C19.49 14.2645 20.0549 14.6882 20.0549 15.2531L22.4559 27.5403C22.5971 28.1053 22.3146 28.6702 21.7497 29.0939L9.03881 36.438C8.75634 36.5792 8.61511 36.5792 8.33265 36.5792C8.05018 36.5792 7.62648 36.438 7.48525 36.2967L4.51938 33.7546C3.53075 37.4266 2.96582 41.0986 2.96582 45.0531C2.96582 49.2901 3.67198 53.3858 4.80184 57.3403L18.2189 53.2446C18.7838 53.1034 19.49 53.3858 19.9137 53.9508L27.399 66.9441C27.6815 67.5091 27.6815 68.074 27.2578 68.6389L19.0663 78.1015C19.0663 78.1015 19.0663 78.1015 18.9251 78.1015C22.8796 81.2086 27.399 83.7508 32.2009 85.3043L30.7886 77.1129C30.6473 76.5479 30.9298 75.983 31.4947 75.7005L42.3696 69.3451C42.9345 69.0626 43.4995 69.0626 44.0644 69.4863L55.0805 79.0901C55.5042 79.5138 55.6454 80.22 55.363 80.7849L52.1146 86.7167C72.1696 83.4683 87.5639 65.9555 87.5639 45.0531C87.5639 43.7821 87.5639 42.6522 87.4227 41.3811L73.017 40.3925C72.1696 40.3925 71.6047 39.9688 71.4635 39.4039ZM39.9687 10.4512C39.9687 9.88632 40.3924 9.32139 40.9573 9.18016L54.9393 4.94319C55.5042 4.80196 56.2104 5.08442 56.6341 5.64935L64.1194 18.6427C64.4018 19.2076 64.4018 19.7726 63.9781 20.3375L55.6454 29.6588C55.363 29.9413 54.9393 30.0825 54.5156 30.0825C54.3744 30.0825 54.0919 30.0825 53.9507 29.9413L40.2511 24.4332C39.6862 24.1508 39.4037 23.7271 39.4037 23.0209L39.9687 10.4512ZM50.4199 42.7934L45.618 54.2332C45.3355 54.7982 44.9118 55.0806 44.3469 55.0806H44.2056L29.5175 54.092C28.9525 54.092 28.3876 53.6683 28.2464 53.1034L24.7156 41.0986C24.5744 40.5337 24.7156 39.8276 25.2805 39.5451L37.2853 31.2124C37.8502 30.7887 38.5563 30.9299 38.98 31.3536L50.1374 41.2399C50.4199 41.5223 50.5611 42.2285 50.4199 42.7934ZM74.5706 52.256L76.9715 64.5432C77.1127 65.1081 76.8303 65.673 76.2653 66.0967L63.5544 73.4408C63.272 73.5821 63.1308 73.5821 62.8483 73.5821C62.5658 73.5821 62.1421 73.4408 62.0009 73.2996L52.2559 65.2494C51.8322 64.8257 51.5497 64.2607 51.8322 63.6958L57.0578 49.9963C57.3402 49.4313 57.9052 49.0076 58.6113 49.1489L73.4407 51.1261C74.0056 51.2674 74.4293 51.6911 74.5706 52.256Z" fill="white"/>
<path d="M42.6518 72.1697L33.4717 77.5365L34.884 86.1517C38.1323 86.9991 41.5219 87.4228 44.9115 87.4228C46.0413 87.4228 47.1712 87.4228 48.3011 87.2815L51.8319 80.6436L42.6518 72.1697Z" fill="black"/>
<path d="M61.0122 19.0664L54.6567 8.05029L42.7932 11.5811L42.5107 22.1735L54.233 26.9754L61.0122 19.0664Z" fill="black"/>
<path d="M62.9897 70.4749L74.0058 63.9783L72.0286 53.8095L59.3177 51.9735L54.9395 63.6958L62.9897 70.4749Z" fill="black"/>
<path d="M24.1512 67.3678L17.7958 56.3517L5.79102 59.8825V60.5887C7.76827 65.673 10.7341 70.3337 14.5474 74.1469L17.3721 75.2768L24.1512 67.3678Z" fill="black"/>
<path d="M27.6816 41.2398L30.6475 51.4086L43.3584 52.2559L47.4541 42.6522L37.8504 34.037L27.6816 41.2398Z" fill="black"/>
<path d="M19.49 27.1166L17.5128 16.8066L14.1232 16.3829C10.3099 20.4787 7.20284 25.4218 5.22559 30.7886L8.47393 33.472L19.49 27.1166Z" fill="black"/>
<path d="M70.8984 27.5403L73.8643 37.709L86.5752 38.5564L86.7164 38.1327C85.7278 31.9185 83.3269 26.1279 79.9373 21.1848L70.8984 27.5403Z" fill="black"/>
<path d="M40.5335 24.4331L54.2331 29.9412C54.3743 29.9412 54.5155 30.0824 54.798 30.0824C55.2217 30.0824 55.6454 29.9412 55.9279 29.6587L64.1193 20.1962C64.543 19.7725 64.543 19.0663 64.2606 18.5014L56.634 5.64926C56.3516 5.08433 55.6454 4.80186 54.9392 4.9431L40.9572 9.18006C40.3923 9.32129 39.9686 9.88622 39.9686 10.4512L39.5449 23.0208C39.5449 23.727 39.9686 24.1507 40.5335 24.4331ZM42.7933 11.581L54.798 8.0502L61.1535 19.0663L54.3743 26.9753L42.652 22.1734L42.7933 11.581Z" fill="#9C8321"/>
<path d="M57.1993 49.9962L51.8325 63.5545C51.55 64.1194 51.8324 64.8256 52.2561 65.108L62.0012 73.1583C62.2836 73.4407 62.5661 73.4407 62.8486 73.4407C63.131 73.4407 63.2723 73.4407 63.5547 73.2995L76.2656 65.9554C76.8306 65.673 77.113 65.108 76.9718 64.4019L74.5708 52.2559C74.4296 51.691 74.0059 51.2673 73.441 51.1261L58.6116 49.0076C58.0467 49.0076 57.3405 49.29 57.1993 49.9962ZM72.0287 53.8095L74.0059 64.1194L62.9898 70.4749L54.7983 63.6957L59.3178 52.1147L72.0287 53.8095Z" fill="#9C8321"/>
<path d="M38.9801 31.2124C38.5564 30.7887 37.709 30.7887 37.2853 31.0711L25.1393 39.5451C24.5744 39.8275 24.4331 40.5337 24.5744 41.0986L28.1052 53.1034C28.2464 53.6683 28.8113 54.092 29.3763 54.092L44.2057 55.0806H44.3469C44.9118 55.0806 45.4767 54.7981 45.618 54.2332L50.4199 42.7934C50.7023 42.2285 50.5611 41.6635 49.9962 41.2398L38.9801 31.2124ZM43.3583 52.256L30.6474 51.4086L27.6815 41.2398L37.8502 34.037L47.3128 42.5109L43.3583 52.256Z" fill="#9C8321"/>
<path d="M89.6825 38.5564C89.4 36.8616 89.1175 35.1668 88.6938 33.6133C87.7052 30.0825 86.4341 26.6929 84.7393 23.5858C83.4682 21.3261 82.1972 19.2076 80.6436 17.2303C72.3109 6.77915 59.4588 0 45.0531 0C32.6246 0 21.1848 5.08436 12.9934 13.4171C12.146 14.2645 11.4398 15.1118 10.7336 15.9592C7.48531 19.7725 4.8019 24.1507 2.96588 28.9526C2.54218 29.9412 2.25972 30.7886 1.97725 31.7773C0.706161 36.0142 0 40.3924 0 45.0531C0 50.7024 0.988625 56.0692 2.96588 61.0123C3.67204 62.9896 4.66066 64.9668 5.64929 66.6616C6.63791 68.4976 7.76777 70.1924 8.89763 71.746C10.1687 73.4408 11.4398 74.9943 12.8521 76.4066C18.219 81.9147 24.8569 86.0104 32.4834 88.1289C33.472 88.4114 34.4607 88.6938 35.4493 88.8351C38.5564 89.5412 41.8047 89.8237 45.0531 89.8237C45.618 89.8237 46.1829 89.8237 46.8891 89.8237C48.019 89.8237 49.1488 89.6825 50.2787 89.5412C72.7346 86.9991 90.2474 67.9327 90.2474 44.7706C90.1062 42.7934 89.9649 40.6749 89.6825 38.5564ZM86.7166 38.2739L86.5754 38.6976L73.8645 37.8502L70.8986 27.6815L79.9374 21.3261C83.327 26.2692 85.728 32.0597 86.7166 38.2739ZM14.1232 16.3829L17.5128 16.8066L19.49 27.1166L8.47393 33.472L5.36682 30.7886C7.20284 25.4218 10.31 20.4787 14.1232 16.3829ZM14.5469 74.1469C10.8749 70.1924 7.909 65.673 5.79052 60.5886V59.8825L17.7953 56.3517L24.1507 67.3678L17.3716 75.2768L14.5469 74.1469ZM48.4427 87.1403C47.3128 87.2815 46.1829 87.2815 45.0531 87.2815C41.5223 87.2815 38.1327 86.8578 35.0256 86.0104L33.6133 77.3953L42.7934 72.0284L52.1147 80.2199L48.4427 87.1403ZM51.8322 86.7166L55.0806 80.7848C55.363 80.2199 55.2218 79.5137 54.7981 79.09L43.782 69.4863C43.3583 69.0626 42.6521 69.0626 42.0872 69.345L31.2123 75.7005C30.6474 75.9829 30.3649 76.5479 30.5062 77.1128L31.9185 85.3043C26.9754 83.7507 22.5972 81.2085 18.6427 78.1014C18.6427 78.1014 18.6427 78.1014 18.7839 78.1014L26.9754 68.6389C27.3991 68.2152 27.3991 67.509 27.1166 66.9441L19.6313 53.9507C19.3488 53.3858 18.6427 53.1033 17.9365 53.2446L4.51943 57.3403C3.53081 53.3858 2.82464 49.29 2.82464 45.0531C2.82464 41.0986 3.38957 37.2853 4.3782 33.7545L7.34408 36.2967C7.62654 36.5791 7.90901 36.5791 8.19147 36.5791C8.47393 36.5791 8.61517 36.5791 8.89763 36.4379L21.6085 29.0938C22.1735 28.8114 22.4559 28.2464 22.3147 27.5403L19.9137 15.2531C19.7725 14.6882 19.3488 14.2645 18.7839 14.1232L16.5242 13.8408C24.1507 7.06161 34.037 2.82464 45.0531 2.82464C58.4701 2.82464 70.4749 9.18009 78.2427 18.9251L68.3564 25.8455C67.7915 26.128 67.6502 26.8341 67.7915 27.3991L71.3223 39.4038C71.4635 39.9687 72.0284 40.3924 72.5934 40.3924L86.9991 41.381C87.1403 42.5109 87.1403 43.782 87.1403 45.0531C87.2815 66.0967 71.8872 83.4682 51.8322 86.7166Z" fill="#9C8321"/>
</svg>
