<svg width="135" height="25" viewBox="0 0 135 25" fill="none" xmlns="http://www.w3.org/2000/svg">
<path d="M21.7519 9L25.4599 0.599999H27.7999L31.5199 9H29.0479L26.1439 1.764H27.0799L24.1759 9H21.7519ZM23.7799 7.368L24.3919 5.616H28.4959L29.1079 7.368H23.7799ZM32.1935 9V0.599999H34.1495L37.6295 6.312H36.5975L39.9815 0.599999H41.9375L41.9615 9H39.7775L39.7535 3.924H40.1255L37.5935 8.172H36.5375L33.9335 3.924H34.3895V9H32.1935ZM43.2227 9V7.512L48.1667 1.644L48.4547 2.484H43.3307V0.599999H50.5667V2.088L45.6227 7.956L45.3347 7.116H50.7467V9H43.2227ZM51.7873 9V0.599999H54.1633V9H51.7873ZM59.3459 9V0.599999H61.7219V7.116H65.7299V9H59.3459ZM68.8541 3.852H72.7541V5.628H68.8541V3.852ZM69.0221 7.164H73.4141V9H66.6701V0.599999H73.2581V2.436H69.0221V7.164ZM78.9326 9.168C78.2686 9.168 77.6526 9.064 77.0846 8.856C76.5166 8.64 76.0246 8.336 75.6086 7.944C75.2006 7.552 74.8806 7.092 74.6486 6.564C74.4166 6.028 74.3006 5.44 74.3006 4.8C74.3006 4.16 74.4166 3.576 74.6486 3.048C74.8806 2.512 75.2046 2.048 75.6206 1.656C76.0366 1.264 76.5286 0.964 77.0966 0.756C77.6726 0.539999 78.3006 0.431999 78.9806 0.431999C79.7726 0.431999 80.4806 0.563999 81.1046 0.827999C81.7286 1.092 82.2446 1.472 82.6526 1.968L81.1406 3.336C80.8526 3.024 80.5406 2.792 80.2046 2.64C79.8766 2.48 79.5086 2.4 79.1006 2.4C78.7406 2.4 78.4126 2.456 78.1166 2.568C77.8206 2.68 77.5686 2.844 77.3606 3.06C77.1526 3.268 76.9886 3.52 76.8686 3.816C76.7566 4.104 76.7006 4.432 76.7006 4.8C76.7006 5.152 76.7566 5.476 76.8686 5.772C76.9886 6.068 77.1526 6.324 77.3606 6.54C77.5686 6.748 77.8166 6.912 78.1046 7.032C78.4006 7.144 78.7246 7.2 79.0766 7.2C79.4286 7.2 79.7726 7.144 80.1086 7.032C80.4446 6.912 80.7846 6.712 81.1286 6.432L82.4606 8.1C81.9806 8.444 81.4246 8.708 80.7926 8.892C80.1606 9.076 79.5406 9.168 78.9326 9.168ZM80.3606 7.788V4.62H82.4606V8.1L80.3606 7.788ZM82.959 9L86.667 0.599999H89.007L92.727 9H90.255L87.351 1.764H88.287L85.383 9H82.959ZM84.987 7.368L85.599 5.616H89.703L90.315 7.368H84.987ZM97.4714 9.168C96.8074 9.168 96.1914 9.064 95.6234 8.856C95.0634 8.64 94.5754 8.336 94.1594 7.944C93.7514 7.552 93.4314 7.092 93.1994 6.564C92.9674 6.028 92.8514 5.44 92.8514 4.8C92.8514 4.16 92.9674 3.576 93.1994 3.048C93.4314 2.512 93.7514 2.048 94.1594 1.656C94.5754 1.264 95.0634 0.964 95.6234 0.756C96.1914 0.539999 96.8074 0.431999 97.4714 0.431999C98.2474 0.431999 98.9394 0.568 99.5474 0.84C100.163 1.112 100.675 1.504 101.083 2.016L99.5714 3.384C99.2994 3.064 98.9994 2.82 98.6714 2.652C98.3514 2.484 97.9914 2.4 97.5914 2.4C97.2474 2.4 96.9314 2.456 96.6434 2.568C96.3554 2.68 96.1074 2.844 95.8994 3.06C95.6994 3.268 95.5394 3.52 95.4194 3.816C95.3074 4.112 95.2514 4.44 95.2514 4.8C95.2514 5.16 95.3074 5.488 95.4194 5.784C95.5394 6.08 95.6994 6.336 95.8994 6.552C96.1074 6.76 96.3554 6.92 96.6434 7.032C96.9314 7.144 97.2474 7.2 97.5914 7.2C97.9914 7.2 98.3514 7.116 98.6714 6.948C98.9994 6.78 99.2994 6.536 99.5714 6.216L101.083 7.584C100.675 8.088 100.163 8.48 99.5474 8.76C98.9394 9.032 98.2474 9.168 97.4714 9.168ZM104.232 9V5.448L104.784 6.876L101.028 0.599999H103.536L106.248 5.148H104.796L107.52 0.599999H109.824L106.08 6.876L106.608 5.448V9H104.232ZM3.11831 19.284H6.99431V21.12H3.11831V19.284ZM3.28631 24H0.910313V15.6H7.49831V17.436H3.28631V24ZM12.7752 24.168C12.1032 24.168 11.4832 24.06 10.9152 23.844C10.3472 23.628 9.85122 23.324 9.42722 22.932C9.01122 22.532 8.68722 22.068 8.45522 21.54C8.22322 21.012 8.10722 20.432 8.10722 19.8C8.10722 19.168 8.22322 18.588 8.45522 18.06C8.68722 17.532 9.01122 17.072 9.42722 16.68C9.85122 16.28 10.3472 15.972 10.9152 15.756C11.4832 15.54 12.1032 15.432 12.7752 15.432C13.4552 15.432 14.0752 15.54 14.6352 15.756C15.2032 15.972 15.6952 16.28 16.1112 16.68C16.5272 17.072 16.8512 17.532 17.0832 18.06C17.3232 18.588 17.4432 19.168 17.4432 19.8C17.4432 20.432 17.3232 21.016 17.0832 21.552C16.8512 22.08 16.5272 22.54 16.1112 22.932C15.6952 23.324 15.2032 23.628 14.6352 23.844C14.0752 24.06 13.4552 24.168 12.7752 24.168ZM12.7752 22.2C13.0952 22.2 13.3912 22.144 13.6632 22.032C13.9432 21.92 14.1832 21.76 14.3832 21.552C14.5912 21.336 14.7512 21.08 14.8632 20.784C14.9832 20.488 15.0432 20.16 15.0432 19.8C15.0432 19.432 14.9832 19.104 14.8632 18.816C14.7512 18.52 14.5912 18.268 14.3832 18.06C14.1832 17.844 13.9432 17.68 13.6632 17.568C13.3912 17.456 13.0952 17.4 12.7752 17.4C12.4552 17.4 12.1552 17.456 11.8752 17.568C11.6032 17.68 11.3632 17.844 11.1552 18.06C10.9552 18.268 10.7952 18.52 10.6752 18.816C10.5632 19.104 10.5072 19.432 10.5072 19.8C10.5072 20.16 10.5632 20.488 10.6752 20.784C10.7952 21.08 10.9552 21.336 11.1552 21.552C11.3632 21.76 11.6032 21.92 11.8752 22.032C12.1552 22.144 12.4552 22.2 12.7752 22.2ZM22.9237 24.168C22.2517 24.168 21.6317 24.06 21.0637 23.844C20.4957 23.628 19.9997 23.324 19.5757 22.932C19.1597 22.532 18.8357 22.068 18.6037 21.54C18.3717 21.012 18.2557 20.432 18.2557 19.8C18.2557 19.168 18.3717 18.588 18.6037 18.06C18.8357 17.532 19.1597 17.072 19.5757 16.68C19.9997 16.28 20.4957 15.972 21.0637 15.756C21.6317 15.54 22.2517 15.432 22.9237 15.432C23.6037 15.432 24.2237 15.54 24.7837 15.756C25.3517 15.972 25.8437 16.28 26.2597 16.68C26.6757 17.072 26.9997 17.532 27.2317 18.06C27.4717 18.588 27.5917 19.168 27.5917 19.8C27.5917 20.432 27.4717 21.016 27.2317 21.552C26.9997 22.08 26.6757 22.54 26.2597 22.932C25.8437 23.324 25.3517 23.628 24.7837 23.844C24.2237 24.06 23.6037 24.168 22.9237 24.168ZM22.9237 22.2C23.2437 22.2 23.5397 22.144 23.8117 22.032C24.0917 21.92 24.3317 21.76 24.5317 21.552C24.7397 21.336 24.8997 21.08 25.0117 20.784C25.1317 20.488 25.1917 20.16 25.1917 19.8C25.1917 19.432 25.1317 19.104 25.0117 18.816C24.8997 18.52 24.7397 18.268 24.5317 18.06C24.3317 17.844 24.0917 17.68 23.8117 17.568C23.5397 17.456 23.2437 17.4 22.9237 17.4C22.6037 17.4 22.3037 17.456 22.0237 17.568C21.7517 17.68 21.5117 17.844 21.3037 18.06C21.1037 18.268 20.9437 18.52 20.8237 18.816C20.7117 19.104 20.6557 19.432 20.6557 19.8C20.6557 20.16 20.7117 20.488 20.8237 20.784C20.9437 21.08 21.1037 21.336 21.3037 21.552C21.5117 21.76 21.7517 21.92 22.0237 22.032C22.3037 22.144 22.6037 22.2 22.9237 22.2ZM30.5069 24V17.484H27.9269V15.6H35.4509V17.484H32.8829V24H30.5069ZM36.3361 24V15.6H40.6321C41.7361 15.6 42.5601 15.804 43.1041 16.212C43.6481 16.612 43.9201 17.14 43.9201 17.796C43.9201 18.228 43.8041 18.608 43.5721 18.936C43.3481 19.256 43.0281 19.512 42.6121 19.704C42.2041 19.888 41.7161 19.98 41.1481 19.98L41.3881 19.404C41.9801 19.404 42.4961 19.496 42.9361 19.68C43.3761 19.856 43.7161 20.116 43.9561 20.46C44.2041 20.796 44.3281 21.208 44.3281 21.696C44.3281 22.424 44.0321 22.992 43.4401 23.4C42.8561 23.8 42.0001 24 40.8721 24H36.3361ZM38.6881 22.284H40.6801C41.0881 22.284 41.3961 22.216 41.6041 22.08C41.8201 21.936 41.9281 21.72 41.9281 21.432C41.9281 21.144 41.8201 20.932 41.6041 20.796C41.3961 20.652 41.0881 20.58 40.6801 20.58H38.5201V18.936H40.3201C40.7201 18.936 41.0201 18.868 41.2201 18.732C41.4201 18.596 41.5201 18.392 41.5201 18.12C41.5201 17.848 41.4201 17.648 41.2201 17.52C41.0201 17.384 40.7201 17.316 40.3201 17.316H38.6881V22.284ZM44.5507 24L48.2588 15.6H50.5988L54.3188 24H51.8468L48.9428 16.764H49.8788L46.9748 24H44.5507ZM46.5788 22.368L47.1908 20.616H51.2948L51.9068 22.368H46.5788ZM54.9923 24V15.6H57.3683V22.116H61.3763V24H54.9923ZM62.3166 24V15.6H64.6926V22.116H68.7006V24H62.3166ZM74.921 24V17.484H72.341V15.6H79.865V17.484H77.297V24H74.921ZM80.7502 24V15.6H84.5902C85.3582 15.6 86.0182 15.724 86.5702 15.972C87.1302 16.22 87.5622 16.58 87.8662 17.052C88.1702 17.516 88.3222 18.068 88.3222 18.708C88.3222 19.34 88.1702 19.888 87.8662 20.352C87.5622 20.808 87.1302 21.16 86.5702 21.408C86.0182 21.648 85.3582 21.768 84.5902 21.768H82.0702L83.1262 20.772V24H80.7502ZM85.9462 24L83.8582 20.94H86.3902L88.4902 24H85.9462ZM83.1262 21.024L82.0702 19.932H84.4462C84.9422 19.932 85.3102 19.824 85.5502 19.608C85.7982 19.392 85.9222 19.092 85.9222 18.708C85.9222 18.316 85.7982 18.012 85.5502 17.796C85.3102 17.58 84.9422 17.472 84.4462 17.472H82.0702L83.1262 16.38V21.024ZM88.625 24L92.333 15.6H94.673L98.393 24H95.921L93.017 16.764H93.953L91.049 24H88.625ZM90.653 22.368L91.265 20.616H95.369L95.981 22.368H90.653ZM99.0666 24V15.6H101.443V24H99.0666ZM103.133 24V15.6H105.089L109.721 21.192H108.797V15.6H111.125V24H109.169L104.537 18.408H105.461V24H103.133ZM112.801 24V15.6H115.177V24H112.801ZM116.867 24V15.6H118.823L123.455 21.192H122.531V15.6H124.859V24H122.903L118.271 18.408H119.195V24H116.867ZM130.735 24.168C130.071 24.168 129.455 24.064 128.887 23.856C128.319 23.64 127.827 23.336 127.411 22.944C127.003 22.552 126.683 22.092 126.451 21.564C126.219 21.028 126.103 20.44 126.103 19.8C126.103 19.16 126.219 18.576 126.451 18.048C126.683 17.512 127.007 17.048 127.423 16.656C127.839 16.264 128.331 15.964 128.899 15.756C129.475 15.54 130.103 15.432 130.783 15.432C131.575 15.432 132.283 15.564 132.907 15.828C133.531 16.092 134.047 16.472 134.455 16.968L132.943 18.336C132.655 18.024 132.343 17.792 132.007 17.64C131.679 17.48 131.311 17.4 130.903 17.4C130.543 17.4 130.215 17.456 129.919 17.568C129.623 17.68 129.371 17.844 129.163 18.06C128.955 18.268 128.791 18.52 128.671 18.816C128.559 19.104 128.503 19.432 128.503 19.8C128.503 20.152 128.559 20.476 128.671 20.772C128.791 21.068 128.955 21.324 129.163 21.54C129.371 21.748 129.619 21.912 129.907 22.032C130.203 22.144 130.527 22.2 130.879 22.2C131.231 22.2 131.575 22.144 131.911 22.032C132.247 21.912 132.587 21.712 132.931 21.432L134.263 23.1C133.783 23.444 133.227 23.708 132.595 23.892C131.963 24.076 131.343 24.168 130.735 24.168ZM132.163 22.788V19.62H134.263V23.1L132.163 22.788Z" fill="white"/>
</svg>
