<svg width="86" height="87" viewBox="0 0 86 87" fill="none" xmlns="http://www.w3.org/2000/svg">
<path fill-rule="evenodd" clip-rule="evenodd" d="M84.1624 40.5492L82.3964 38.7893C82.3964 40.5492 80.6304 40.5492 80.6304 40.5492C78.8644 40.5492 78.8644 40.5492 78.8644 42.3091C78.8644 49.3487 73.5664 56.3884 73.5664 56.3884C73.5664 58.1483 75.3324 61.6681 73.5664 68.7077L75.3324 66.9478C78.8644 63.428 80.6304 59.9082 82.3964 54.6285C84.1624 51.1087 84.1624 45.8289 84.1624 40.5492ZM20.5861 10.6308L17.0541 15.9105C17.0541 17.6704 18.8201 19.4303 18.8201 19.4303C20.5861 19.4303 27.6501 17.6704 32.9482 17.6704C34.7142 15.9105 38.2462 14.1506 41.7782 12.3907C43.5442 10.6308 43.5442 10.6308 45.3102 10.6308C43.5442 8.87085 41.7782 5.35103 40.0122 3.59113C34.7142 3.59113 29.4162 5.35103 24.1181 7.11094C22.3521 8.87085 22.3521 8.87085 20.5861 10.6308ZM2.92602 38.7893C2.92602 38.7893 2.92602 42.3091 4.69203 44.069C8.22405 40.5492 11.7561 37.0294 13.5221 37.0294C13.5221 35.2695 13.5221 28.2298 17.0541 21.1902C17.0541 19.4303 17.0541 17.6704 15.2881 15.9105L13.5221 17.6704H11.7561C8.22405 21.1902 6.45804 26.4699 4.69203 31.7497C2.92602 33.5096 2.92602 37.0294 2.92602 38.7893ZM59.4383 81.0271V79.2672C52.3743 81.0271 47.0762 79.2672 47.0762 79.2672C45.3102 81.0271 40.0122 82.787 31.1822 81.0271V82.787C40.0122 84.5469 50.6083 84.5469 59.4383 81.0271ZM59.4383 56.3884C57.6723 58.1483 52.3743 63.428 45.3102 66.9478C47.0762 68.7077 47.0762 72.2276 47.0762 77.5073C48.8423 79.2672 52.3743 79.2672 59.4383 79.2672C59.4383 77.5073 66.5023 73.9875 71.8004 68.7077C73.5664 65.1879 71.8004 61.6681 71.8004 59.9082V58.1483C64.7363 58.1483 61.2043 56.3884 59.4383 56.3884ZM80.6304 38.7893L82.3964 31.7497C80.6304 29.9897 80.6304 26.4699 78.8644 24.71C78.8644 22.9501 77.0984 22.9501 77.0984 21.1902L68.2684 14.1506L62.9703 15.9105C64.7363 17.6704 66.5023 21.1902 68.2684 29.9897C73.5664 35.2695 77.0984 38.7893 77.0984 40.5492C78.8644 40.5492 80.6304 38.7893 80.6304 38.7893ZM68.2684 14.1506L73.5664 17.6704C71.8004 14.1506 70.0344 12.3907 68.2684 10.6308V14.1506ZM34.7142 19.4303L38.2462 33.5096C47.0762 35.2695 52.3743 37.0294 54.1403 38.7893L55.9063 37.0294C61.2043 35.2695 64.7363 29.9897 66.5023 29.9897C64.7363 21.1902 62.9703 17.6704 61.2043 15.9105C61.2043 15.9105 50.6083 10.6308 45.3102 10.6308C45.3102 10.6308 38.2462 15.9105 34.7142 19.4303ZM29.4162 81.0271C29.4162 81.0271 24.1181 75.7474 20.5861 70.4676C18.8201 70.4676 13.5221 66.9478 9.99006 63.428L8.22405 65.1879C13.5221 73.9875 20.5861 79.2672 29.4162 82.787V81.0271ZM57.6723 56.3884C57.6723 49.3487 54.1403 40.5492 54.1403 38.7893C52.3743 38.7893 47.0762 35.2695 38.2462 33.5096C38.2462 35.2695 29.4162 40.5492 25.8841 45.8289C25.8841 45.8289 25.8841 52.8686 29.4162 59.9082C31.1822 61.6681 36.4802 65.1879 45.3102 66.9478C50.6083 63.428 57.6723 56.3884 57.6723 56.3884ZM6.45804 45.8289C6.45804 45.8289 4.69203 52.8686 9.99006 61.6681C13.5221 65.1879 18.8201 68.7077 20.5861 68.7077L27.6501 61.6681C25.8841 52.8686 25.8841 47.5888 25.8841 45.8289C24.1181 44.069 18.8201 42.3091 13.5221 38.7893C11.7561 38.7893 8.22405 40.5492 6.45804 45.8289ZM20.5861 66.9478V65.1879H22.3521V63.428V61.6681H24.1181V59.9082V58.1483V56.3884V54.6285H22.3521V52.8686V51.1087V49.3487V47.5888H24.1181V49.3487V51.1087V52.8686L25.8841 54.6285V56.3884V58.1483C27.6501 58.1483 27.6501 59.9082 27.6501 59.9082V61.6681H25.8841V63.428H24.1181C24.1181 65.1879 24.1181 65.1879 22.3521 65.1879L20.5861 66.9478ZM29.4162 44.069C29.4162 42.3091 31.1822 42.3091 31.1822 42.3091V40.5492H32.9482L34.7142 38.7893C34.7142 38.7893 34.7142 37.0294 36.4802 37.0294H38.2462V35.2695H40.0122H41.7782C41.7782 37.0294 43.5442 37.0294 43.5442 37.0294H45.3102H47.0762V38.7893H48.8423L50.6083 40.5492H48.8423L47.0762 38.7893H43.5442H41.7782V37.0294H40.0122L34.7142 42.3091H32.9482V44.069H31.1822V45.8289H29.4162V44.069ZM43.5442 15.9105H41.7782L40.0122 17.6704H38.2462C40.0122 17.6704 40.0122 17.6704 40.0122 15.9105H41.7782V14.1506H43.5442L45.3102 12.3907H47.0762H48.8423H50.6083V14.1506H52.3743H54.1403V15.9105H55.9063H57.6723V17.6704H59.4383V19.4303L57.6723 17.6704H55.9063L52.3743 15.9105H50.6083H48.8423V14.1506H47.0762H45.3102L43.5442 15.9105ZM68.2684 26.4699V24.71V22.9501V21.1902H66.5023V19.4303H68.2684V21.1902C68.2684 22.9501 70.0344 22.9501 70.0344 22.9501V24.71V26.4699C70.0344 26.4699 70.0344 28.2298 71.8004 28.2298V29.9897H73.5664V31.7497H75.3324V33.5096H77.0984V35.2695H75.3324C75.3324 33.5096 75.3324 33.5096 73.5664 33.5096V31.7497H71.8004L70.0344 29.9897V28.2298H68.2684V26.4699ZM61.2043 58.1483H62.9703H64.7363H66.5023C68.2684 58.1483 68.2684 59.9082 68.2684 59.9082H66.5023H64.7363H62.9703H61.2043C59.4383 59.9082 59.4383 58.1483 59.4383 58.1483H61.2043ZM61.2043 82.787C50.6083 88.0667 40.0122 88.0667 31.1822 84.5469C18.8201 81.0271 11.7561 75.7474 6.45804 65.1879H4.69203V63.428V61.6681H2.92602V59.9082V58.1483C-0.605998 49.3487 -0.605998 38.7893 1.16001 29.9897C4.69203 19.4303 11.7561 10.6308 22.3521 5.35103C32.9482 0.0713085 45.3102 -1.6886 55.9063 1.83122C66.5023 5.35103 75.3324 12.3907 80.6304 22.9501C85.9284 33.5096 87.6945 45.8289 84.1624 56.3884C82.3964 63.428 77.0984 70.4676 71.8004 75.7474L70.0344 77.5073C70.0344 77.5073 68.2684 77.5073 68.2684 79.2672C68.2684 79.2672 66.5023 79.2672 66.5023 81.0271H64.7363L62.9703 82.787H61.2043Z" fill="#9C8321"/>
</svg>
