<svg width="661" height="91" viewBox="0 0 661 91" fill="none" xmlns="http://www.w3.org/2000/svg">
<path d="M661 75.8828C661 84.1671 654.284 90.8828 646 90.8828C637.716 90.8828 631 84.1671 631 75.8828C631 67.5985 637.716 60.8828 646 60.8828C654.284 60.8828 661 67.5985 661 75.8828Z" fill="url(#paint0_linear_1798_26134)"/>
<path d="M38.736 0H61.648L69.584 28.032L77.648 0H100.56L85.584 43.392L92.112 62.336L111.696 0H138.832L103.248 90.88H82.512L69.584 58.368L56.784 90.88H36.048L0.463989 0H27.472L47.184 62.336L53.456 43.392L38.736 0Z" fill="black"/>
<path d="M209.826 69.12V90.88H145.058V0H208.674V21.76H170.018V34.56H203.042V54.784H170.018V69.12H209.826Z" fill="black"/>
<path d="M298.745 67.584C298.745 71.68 297.892 75.2213 296.185 78.208C294.478 81.1093 292.132 83.4987 289.145 85.376C286.158 87.2533 282.66 88.6613 278.649 89.6C274.724 90.4533 270.542 90.88 266.105 90.88H221.433V0H274.169C277.326 0 280.185 0.682668 282.745 2.048C285.305 3.41334 287.481 5.20533 289.273 7.424C291.065 9.55733 292.43 12.032 293.369 14.848C294.393 17.5787 294.905 20.3947 294.905 23.296C294.905 27.5627 293.796 31.6587 291.577 35.584C289.444 39.424 286.201 42.3253 281.849 44.288C287.054 45.824 291.15 48.512 294.137 52.352C297.209 56.1067 298.745 61.184 298.745 67.584ZM273.401 62.464C273.401 60.2453 272.804 58.4107 271.609 56.96C270.414 55.424 268.878 54.656 267.001 54.656H246.393V69.888H266.105C268.153 69.888 269.86 69.248 271.225 67.968C272.676 66.688 273.401 64.8533 273.401 62.464ZM246.393 21.248V35.2H263.417C265.124 35.2 266.66 34.7307 268.025 33.792C269.476 32.8533 270.201 30.976 270.201 28.16C270.201 25.6853 269.604 23.936 268.409 22.912C267.214 21.8027 265.806 21.248 264.185 21.248H246.393Z" fill="black"/>
<path d="M380.592 21.76H354.48V90.88H329.52V21.76H303.28V0H380.592V21.76Z" fill="black"/>
<path d="M389.683 90.88V0H431.411C435.848 0 439.944 0.938667 443.699 2.816C447.454 4.608 450.654 6.99733 453.299 9.984C456.03 12.8853 458.163 16.256 459.699 20.096C461.235 23.8507 462.003 27.648 462.003 31.488C462.003 36.7787 460.851 41.728 458.547 46.336C456.243 50.8587 453.043 54.5707 448.947 57.472L468.147 90.88H439.987L423.987 62.976H414.643V90.88H389.683ZM414.643 41.216H430.387C431.923 41.216 433.331 40.3627 434.611 38.656C435.976 36.9493 436.659 34.56 436.659 31.488C436.659 28.3307 435.891 25.9413 434.355 24.32C432.819 22.6133 431.283 21.76 429.747 21.76H414.643V41.216Z" fill="black"/>
<path d="M540.826 69.12V90.88H476.058V0H539.674V21.76H501.018V34.56H534.042V54.784H501.018V69.12H540.826Z" fill="black"/>
<path d="M617.201 69.12V90.88H552.433V0H616.049V21.76H577.393V34.56H610.417V54.784H577.393V69.12H617.201Z" fill="black"/>
<defs>
<linearGradient id="paint0_linear_1798_26134" x1="661" y1="75.8828" x2="631" y2="75.8828" gradientUnits="userSpaceOnUse">
<stop stop-color="#006039"/>
<stop offset="1" stop-color="#42B17C"/>
</linearGradient>
</defs>
</svg>
