<svg width="357" height="84" viewBox="0 0 357 84" fill="none" xmlns="http://www.w3.org/2000/svg">
<path d="M277.264 68.0001V22.5601H257.168C255.077 22.5601 253.157 22.9868 251.408 23.8401C249.616 24.6935 248.08 25.8455 246.8 27.2961C245.477 28.7468 244.475 30.3681 243.792 32.1601C243.067 33.9521 242.704 35.7868 242.704 37.6641C242.704 39.5841 243.045 41.4401 243.728 43.2321C244.368 44.9815 245.307 46.5175 246.544 47.8401C247.781 49.1628 249.232 50.1868 250.896 50.9121L240.528 68.0001H250.256L259.6 52.7681H268.432V68.0001H277.264ZM268.432 45.0241H257.36C256.251 45.0241 255.269 44.7041 254.416 44.0641C253.563 43.3815 252.88 42.4855 252.368 41.3761C251.856 40.2668 251.6 39.0295 251.6 37.6641C251.6 36.2135 251.899 34.9548 252.496 33.8881C253.093 32.7788 253.861 31.9041 254.8 31.2641C255.696 30.6241 256.677 30.3041 257.744 30.3041H268.432V45.0241Z" fill="black"/>
<path d="M316.288 60.2561V68.0001H284.736V22.5601H315.712V30.3041H293.568V41.2481H312.704V48.4161H293.568V60.2561H316.288ZM354.726 60.2561V68.0001H323.174V22.5601H354.15V30.3041H332.006V41.2481H351.142V48.4161H332.006V60.2561H354.726Z" fill="black"/>
<path d="M20.288 22.6881H28.48L33.664 37.7281L38.912 22.6881H47.04L39.232 43.3601L44.992 57.8241L57.856 22.5601H67.456L49.28 68.0001H41.664L33.664 48.9281L25.728 68.0001H18.112L0 22.5601H9.472L22.4 57.8241L28.032 43.3601L20.288 22.6881ZM103.663 60.2561V68.0001H72.111V22.5601H103.087V30.3041H80.943V41.2481H100.079V48.4161H80.943V60.2561H103.663ZM147.157 56.2881C147.157 58.8481 146.495 61.0027 145.173 62.7521C143.85 64.4587 142.058 65.7601 139.797 66.6561C137.578 67.5521 135.146 68.0001 132.501 68.0001H110.549V22.5601H134.869C137.002 22.5601 138.837 23.1361 140.373 24.2881C141.951 25.3974 143.146 26.8481 143.957 28.6401C144.81 30.3894 145.237 32.2241 145.237 34.1441C145.237 36.3201 144.682 38.3894 143.573 40.3521C142.463 42.3147 140.842 43.7654 138.708 44.7041C141.311 45.4721 143.359 46.8587 144.853 48.8641C146.389 50.8694 147.157 53.3441 147.157 56.2881ZM138.261 54.6241C138.261 53.4721 138.026 52.4481 137.557 51.5521C137.087 50.6134 136.447 49.8881 135.637 49.3761C134.869 48.8214 133.973 48.5441 132.949 48.5441H119.381V60.5121H132.501C133.567 60.5121 134.527 60.2561 135.381 59.7441C136.277 59.1894 136.981 58.4641 137.493 57.5681C138.005 56.6721 138.261 55.6907 138.261 54.6241ZM119.381 30.1121V41.5681H131.157C132.138 41.5681 133.034 41.3334 133.845 40.8641C134.655 40.3947 135.295 39.7334 135.765 38.8801C136.277 38.0267 136.533 37.0027 136.533 35.8081C136.533 34.6561 136.298 33.6534 135.829 32.8001C135.402 31.9467 134.805 31.2854 134.037 30.8161C133.311 30.3467 132.479 30.1121 131.541 30.1121H119.381Z" fill="black"/>
<path d="M214.981 73.3873C226.904 73.3873 236.677 63.6144 236.677 51.6915C236.677 41.9187 230.227 33.514 221.236 30.973C219.477 20.6138 210.681 12.7955 199.931 12.7955C189.181 12.7955 180.385 20.6138 178.626 30.7776C169.635 33.514 163.185 41.7232 163.185 51.4961C163.185 63.4189 172.958 73.1918 184.881 73.1918C186.835 73.3873 211.658 73.3873 214.981 73.3873Z" fill="#00731E"/>
<path d="M192.115 19.6361V80.2278" stroke="black" stroke-width="7" stroke-miterlimit="10" stroke-linecap="round"/>
<path d="M175.501 33.3184L192.115 49.9322" stroke="black" stroke-width="7" stroke-miterlimit="10" stroke-linecap="round"/>
<path d="M208.729 41.1357L192.115 57.7496" stroke="black" stroke-width="7" stroke-miterlimit="10" stroke-linecap="round"/>
<path d="M175.5 11.4266C172.764 14.554 170.809 18.2676 170.027 22.5677C160.841 25.3041 154 33.9042 154 44.068C154 56.5773 163.968 66.5456 176.478 66.5456C178.628 66.5456 188.01 66.5456 192.114 66.5456" stroke="black" stroke-width="7" stroke-miterlimit="10" stroke-linecap="round" stroke-linejoin="round"/>
<path d="M201.887 66.5463C209.901 66.5463 204.428 66.5463 207.751 66.5463C220.26 66.5463 230.229 56.578 230.229 44.0687C230.229 33.905 223.388 25.3048 214.201 22.5684C212.247 12.0137 203.256 4 192.114 4C190.746 4 189.378 4.19546 188.01 4.39091" stroke="black" stroke-width="7" stroke-miterlimit="10" stroke-linecap="round" stroke-linejoin="round"/>
</svg>
